<svg width="116" height="116" viewBox="0 0 116 116" fill="none" xmlns="http://www.w3.org/2000/svg">
<path d="M54.7375 104.037C55.4625 102.95 56.55 102.225 57.275 101.5H7.975C10.15 94.25 15.95 88.8125 23.2 86.6375C32.9875 84.1 39.5125 75.4 39.5125 65.6125C39.5125 64.1625 38.7875 63.075 37.7 62.35C32.625 59.45 29.3625 53.2875 29 46.7625C29 44.225 30.8125 41.6875 33.35 40.9625L37.3375 39.5125C38.7875 39.15 39.875 37.7 39.875 36.25V24.65C46.4 33.7125 55.825 39.875 66.3375 42.4125C65.6125 43.8625 65.25 45.3125 65.25 47.125C65.25 53.65 61.625 59.45 56.1875 62.7125C55.1 63.4375 54.375 64.525 54.375 65.975C54.375 71.4125 56.55 76.4875 59.8125 80.1125C59.8125 79.025 59.8125 78.3 59.8125 77.2125C60.175 74.675 61.625 73.5875 63.4375 73.225C62.35 71.4125 61.625 69.6 61.625 67.7875C68.15 63.075 72.5 55.4625 72.5 47.125C72.5 44.95 73.95 43.5 76.125 43.5C78.3 43.5 79.75 42.05 79.75 39.875V31.5375C79.75 19.2125 70.6875 8.7 58.725 7.25C51.475 6.525 44.225 9.0625 39.15 14.5C35.525 14.1375 32.2625 15.225 29 17.7625C24.2875 21.025 21.75 26.4625 21.75 32.625V46.4V46.7625V47.125V47.4875C22.1125 55.4625 26.1 63.075 32.2625 67.7875C31.5375 73.5875 27.1875 78.3 21.3875 79.75C10.5125 82.65 2.5375 90.9875 0.3625 101.863C0 103.675 0.3625 105.125 1.45 106.575C2.9 108.025 4.35 108.75 6.1625 108.75H53.65C53.2875 107.3 53.65 105.488 54.7375 104.037Z" fill="#B28F4C"/>
<path d="M115.638 102.95L110.2 84.825C110.563 83.0125 110.925 81.5625 110.925 79.75C110.925 69.6 102.95 61.625 92.8 61.625C88.8125 61.625 85.1875 63.075 81.925 65.25H73.95C70.6875 63.075 67.0625 61.625 63.075 61.625C52.925 61.625 44.95 69.6 44.95 79.75C44.95 81.5625 45.3125 83.0125 45.675 84.825L40.2375 102.95C39.15 105.85 39.875 109.112 41.6875 111.65C43.5 114.187 46.7625 115.637 50.025 115.637C53.2875 115.637 56.1875 114.187 58 111.65L69.2375 97.5125H85.9125L97.15 111.65C98.9625 114.187 102.225 115.637 105.125 115.637C108.388 115.637 111.288 114.187 113.463 111.65C116 109.112 116.363 105.85 115.638 102.95ZM93.1625 85.9125C92.4375 86.6375 91.7125 87 90.625 87C90.2625 87 89.5375 87 89.175 86.6375C88.8125 86.275 88.45 86.275 88.0875 85.9125C87.3625 85.1875 87 84.4625 87 83.375C87 82.2875 87.3625 81.5625 88.0875 80.8375C88.45 80.475 88.8125 80.1125 89.175 80.1125C90.625 79.3875 92.075 79.75 93.1625 80.8375C93.8875 81.5625 94.25 82.2875 94.25 83.375C94.25 84.4625 93.8875 85.1875 93.1625 85.9125ZM97.5125 77.575C97.15 77.9375 97.15 78.3 96.7875 78.6625C96.0625 79.3875 95.3375 79.75 94.25 79.75C93.1625 79.75 92.4375 79.3875 91.7125 78.6625C91.35 78.3 90.9875 77.9375 90.9875 77.575C90.9875 77.2125 90.625 76.4875 90.625 76.125C90.625 75.7625 90.625 75.0375 90.9875 74.675C91.35 74.3125 91.35 73.95 91.7125 73.5875C93.1625 72.1375 95.3375 72.1375 96.7875 73.5875C97.15 73.95 97.5125 74.3125 97.5125 74.675C97.5125 75.0375 97.875 75.7625 97.875 76.125C97.875 76.4875 97.875 77.2125 97.5125 77.575Z" fill="#B28F4C"/>
</svg>
