<svg width="157" height="157" viewBox="0 0 157 157" fill="none" xmlns="http://www.w3.org/2000/svg">
<g clip-path="url(#clip0_1813_1461)">
<path d="M78.4998 0C35.1466 0 0 35.1463 0 78.5002C0 121.854 35.1466 157 78.4998 157C121.854 157 157 121.854 157 78.5002C157 35.1463 121.854 0 78.4998 0ZM20.9335 78.5002C20.9335 65.8306 25.0984 54.1428 32.0595 44.6242L112.374 124.94C102.857 131.904 91.1694 136.067 78.5002 136.067C46.7576 136.067 20.9335 110.242 20.9335 78.5002ZM126.06 110.879L46.1186 30.9401C55.3541 24.6333 66.5006 20.9332 78.4998 20.9332C110.243 20.9332 136.067 46.7579 136.067 78.5002C136.067 90.5001 132.367 101.647 126.06 110.879Z" fill="white"/>
</g>
<defs>
<clipPath id="clip0_1813_1461">
<rect width="157" height="157" fill="white"/>
</clipPath>
</defs>
</svg>
