<?xml version="1.0" encoding="utf-8"?>
<!-- Generator: Adobe Illustrator 28.0.0, SVG Export Plug-In . SVG Version: 6.00 Build 0)  -->
<svg version="1.1" id="Layer_1" xmlns="http://www.w3.org/2000/svg" xmlns:xlink="http://www.w3.org/1999/xlink" x="0px" y="0px"
	 viewBox="0 0 229 229" style="enable-background:new 0 0 229 229;" xml:space="preserve">
<style type="text/css">
	.st0{fill:none;stroke:#C9B57B;stroke-width:7.2;stroke-linecap:round;stroke-linejoin:round;}
</style>
<path class="st0" d="M76.6,91.9H35c-6.1-0.1-12,2.3-16.3,6.6c-4.4,4.3-6.8,10.1-6.9,16.2v86.4c0.1,12.7,10.5,22.9,23.2,22.8h41.6
	c6.1,0.1,12-2.3,16.3-6.6c4.4-4.3,6.8-10.1,6.9-16.2v-86.4c0-6.1-2.5-11.9-6.9-16.2C88.6,94.2,82.7,91.9,76.6,91.9z"/>
<path class="st0" d="M76.6,3.9H35c-12.5-0.3-22.8,9.5-23.2,21.9v14.9C12.2,53.1,22.5,62.9,35,62.6h41.6c12.5,0.3,22.8-9.5,23.2-21.9
	V25.8C99.5,13.3,89.1,3.5,76.6,3.9z"/>
<path class="st0" d="M152.4,135.9H194c6.1,0.1,12-2.3,16.3-6.6c4.4-4.3,6.8-10.1,6.9-16.2V26.7c0-6.1-2.5-11.9-6.9-16.2
	C206,6.2,200.1,3.8,194,3.9h-41.6c-6.1-0.1-12,2.3-16.3,6.6c-4.4,4.3-6.8,10.1-6.9,16.2v86.4c0,6.1,2.5,11.9,6.9,16.2
	C140.4,133.6,146.3,136,152.4,135.9z"/>
<path class="st0" d="M152.4,224H194c12.5,0.4,22.9-9.4,23.2-21.9v-14.9c-0.4-12.5-10.8-22.3-23.2-21.9h-41.6
	c-12.5-0.3-22.8,9.5-23.2,21.9v14.9C129.5,214.5,139.9,224.3,152.4,224z"/>
</svg>
