<svg width="35" height="32" viewBox="0 0 23 20" fill="none" xmlns="http://www.w3.org/2000/svg">
<path d="M22.2381 6.331L22.2316 6.2805C22.2195 6.21736 22.1981 6.15636 22.1681 6.0995L19.0001 1C19.0001 1 18.5961 0.5 18.5001 0.5H5.00009L0.940093 5.9265L0.892093 5.9765L0.885593 6C0.851365 6.05513 0.823202 6.11381 0.801593 6.175L0.785093 6.2235C0.739115 6.37884 0.741382 6.54448 0.791593 6.6985L0.810593 6.753C0.836259 6.81767 0.867593 6.87633 0.904593 6.929L10.7201 19.3625L10.7401 19.391C10.7901 19.4557 10.8524 19.514 10.9271 19.566L10.9841 19.6015C11.0401 19.6365 11.0986 19.6645 11.1836 19.6955L11.2391 19.714C11.3351 19.7385 11.4186 19.75 11.5001 19.75C11.5826 19.75 11.6631 19.739 11.7716 19.711L11.8381 19.6875C11.9031 19.6645 11.9616 19.636 12.0321 19.5925L12.0761 19.565C12.1516 19.5115 12.2121 19.4535 12.2456 19.408L22.0736 6.9615C22.1604 6.84553 22.2171 6.7098 22.2386 6.5665L22.2461 6.502L22.2501 6.451L22.2381 6.331ZM16.9681 6L18.3671 3.4685L19.7651 6H16.9681ZM16.1291 7.5H19.4481L13.9161 14.5075L16.1291 7.5ZM15.3081 5.241L13.2876 2.5H16.8226L15.3081 5.241ZM8.83609 7.5H14.1656L11.5001 15.9385L8.83609 7.5ZM9.36459 6L11.5001 3.102L13.6356 6H9.36459ZM7.86059 5.014L6.93459 2.5H9.71309L7.86059 5.014ZM9.08509 14.508L3.55259 7.5H6.87209L9.08509 14.508ZM5.33259 3.486L6.25909 6H3.48009L5.33259 3.486Z" fill="#C9B57B"/>
</svg>
