<svg width="93" height="93" viewBox="0 0 93 93" fill="none" xmlns="http://www.w3.org/2000/svg">
<path fill-rule="evenodd" clip-rule="evenodd" d="M89.125 15.5C89.125 12.0743 84.6881 10.8559 81.7528 10.0497C81.4831 9.97568 81.2262 9.90508 80.9863 9.83661C77.3206 8.7892 72.1145 7.75 65.875 7.75C59.1953 7.75 53.6877 9.97425 49.9057 12.1356C49.3272 12.4661 48.7188 12.9228 48.169 13.3355C47.4428 13.8808 46.8189 14.3494 46.5 14.3494C46.1811 14.3494 45.5572 13.8808 44.831 13.3355C44.2812 12.9228 43.6728 12.4661 43.0943 12.1356C39.3123 9.97425 33.8046 7.75 27.125 7.75C20.8854 7.75 15.6794 8.7892 12.0136 9.83661C11.7831 9.90245 11.5361 9.97045 11.2769 10.0418C8.3545 10.8466 3.875 12.08 3.875 15.5V65.875C3.875 67.2181 4.57037 68.465 5.7128 69.1715C7.53025 70.2944 9.92868 69.3114 12.0541 68.4403C12.7956 68.1361 13.5039 67.8458 14.1427 67.6633C17.2581 66.7732 21.7396 65.875 27.125 65.875C32.0125 65.875 35.6715 67.4874 38.4144 69.1753C39.1189 69.6089 39.8311 70.1619 40.562 70.7292C42.3685 72.1324 44.2905 73.625 46.5 73.625C48.7157 73.625 50.628 72.1378 52.4315 70.7354C53.1631 70.1662 53.8768 69.6113 54.5856 69.1753C57.3287 67.4874 60.9875 65.875 65.875 65.875C71.2605 65.875 75.7419 66.7732 78.8574 67.6633C79.5255 67.8544 80.2509 68.1605 81.0038 68.4786C83.0967 69.3625 85.4023 70.3363 87.2871 69.1715C88.4294 68.465 89.125 67.2181 89.125 65.875V15.5ZM12.9135 17.6603C12.1351 17.9087 11.625 18.6418 11.625 19.4589V57.734C11.625 59.0279 12.8684 59.959 14.1262 59.656C17.5761 58.8252 22.0014 58.125 27.125 58.125C33.957 58.125 39.0577 60.4477 42.625 62.6669V21.1407C41.8457 20.5217 40.7018 19.6945 39.2495 18.8644C36.2504 17.1507 32.0704 15.5 27.125 15.5C20.9835 15.5 16.0033 16.674 12.9135 17.6603ZM65.875 58.125C59.043 58.125 53.9423 60.4477 50.375 62.6669V21.1407C51.1543 20.5217 52.2982 19.6945 53.7505 18.8644C56.7498 17.1507 60.9297 15.5 65.875 15.5C72.0165 15.5 76.9966 16.674 80.0866 17.6603C80.8651 17.9087 81.375 18.6418 81.375 19.4589V57.734C81.375 59.0279 80.1315 59.959 78.8737 59.656C75.4238 58.8252 70.9985 58.125 65.875 58.125Z" fill="#B28F4C"/>
<path d="M8.08845 79.0837C7.21371 77.1307 8.08799 74.8383 10.0411 73.9633C11.8556 73.1569 13.734 72.4792 15.6232 71.8727C18.7576 70.8672 23.0915 69.75 27.125 69.75C31.6467 69.75 35.506 72.187 38.3031 73.9532C38.4467 74.0439 38.5875 74.1326 38.7254 74.2194C41.9844 76.2681 44.1765 77.5 46.5 77.5C48.8207 77.5 50.9996 76.2712 54.2546 74.221C54.3883 74.1369 54.5243 74.0509 54.6631 73.9629C57.4627 72.1924 61.3246 69.75 65.875 69.75C69.9302 69.75 74.2632 70.8664 77.3961 71.8735C80.2094 72.7779 82.2964 73.6723 82.8327 73.9079C84.7935 74.7751 85.8091 77.0904 84.9082 79.0907C84.0359 81.0286 81.7078 81.8884 79.7762 81.0297C78.2296 80.3477 76.6324 79.7688 75.0238 79.2515C72.13 78.3211 68.713 77.5 65.875 77.5C63.7085 77.5 61.6268 78.7346 58.1517 80.9259C55.271 82.7425 51.2945 85.25 46.5 85.25C41.7023 85.25 37.7129 82.7394 34.824 80.9212C31.3419 78.7295 29.2649 77.5 27.125 77.5C24.3109 77.5 20.8948 78.3203 17.9911 79.2523C16.3733 79.7711 14.7627 80.3485 13.2079 81.0371C11.2549 81.9109 8.96304 81.0367 8.08845 79.0837Z" fill="#B28F4C"/>
</svg>
