<svg width="116" height="116" viewBox="0 0 116 116" fill="none" xmlns="http://www.w3.org/2000/svg">
<path d="M44.2758 52.5383C43.7925 52.49 43.2125 52.49 42.6808 52.5383C31.1775 52.1516 22.0425 42.7266 22.0425 31.1266C22.0425 19.285 31.6125 9.66663 43.5025 9.66663C55.3439 9.66663 64.9622 19.285 64.9622 31.1266C64.9139 42.7266 55.7789 52.1516 44.2758 52.5383Z" stroke="#B28F4C" stroke-width="3.75" stroke-linecap="round" stroke-linejoin="round"/>
<path opacity="0.4" d="M79.3114 19.3334C88.6881 19.3334 96.2281 26.9217 96.2281 36.25C96.2281 45.385 88.9781 52.8284 79.9398 53.1667C79.5531 53.1184 79.1181 53.1184 78.6831 53.1667" stroke="#B28F4C" stroke-width="3.75" stroke-linecap="round" stroke-linejoin="round"/>
<path d="M20.1099 70.3734C8.41324 78.2034 8.41324 90.9634 20.1099 98.745C33.4016 107.638 55.1999 107.638 68.4916 98.745C80.1882 90.915 80.1882 78.155 68.4916 70.3734C55.2482 61.5284 33.4499 61.5284 20.1099 70.3734Z" stroke="#B28F4C" stroke-width="3.75" stroke-linecap="round" stroke-linejoin="round"/>
<path opacity="0.4" d="M88.6426 96.6666C92.1226 95.9416 95.4092 94.54 98.1159 92.4616C105.656 86.8066 105.656 77.4783 98.1159 71.8233C95.4576 69.7933 92.2192 68.44 88.7876 67.6666" stroke="#B28F4C" stroke-width="3.75" stroke-linecap="round" stroke-linejoin="round"/>
</svg>
