<svg width="263" height="263" viewBox="0 0 263 263" fill="none" xmlns="http://www.w3.org/2000/svg">
<path fill-rule="evenodd" clip-rule="evenodd" d="M29.217 131.534C29.2121 115.203 33.1177 99.1087 40.6072 84.5968C48.0967 70.0849 58.9522 57.5774 72.2658 48.1204C85.5794 38.6634 100.964 32.5319 117.133 30.2387C133.302 27.9456 149.784 29.5575 165.202 34.9395C168.863 36.2145 172.879 35.9832 176.369 34.2967C179.858 32.6101 182.535 29.6064 183.81 25.9464C185.085 22.2864 184.853 18.2698 183.167 14.7802C181.48 11.2907 178.477 8.61407 174.817 7.33916C147.893 -2.0537 118.646 -2.44076 91.4841 6.23634C64.3218 14.9134 40.7158 32.1845 24.2242 55.4463C7.73265 78.7082 -0.750918 106.7 0.0521936 135.204C0.855305 163.707 10.9016 191.177 28.6768 213.473C46.4521 235.77 70.993 251.684 98.6009 258.818C126.209 265.952 155.387 263.919 181.739 253.025C208.091 242.131 230.187 222.967 244.698 198.42C259.21 173.874 265.349 145.276 262.191 116.937C261.98 115.03 261.395 113.183 260.47 111.502C259.546 109.82 258.299 108.338 256.801 107.138C255.303 105.939 253.583 105.046 251.741 104.511C249.898 103.976 247.968 103.81 246.06 104.021C244.153 104.232 242.306 104.817 240.625 105.741C238.943 106.666 237.461 107.913 236.261 109.411C235.062 110.909 234.169 112.628 233.635 114.471C233.1 116.314 232.933 118.244 233.144 120.152C234.683 133.972 233.388 147.961 229.337 161.264C225.286 174.567 218.565 186.904 209.584 197.522C200.604 208.139 189.552 216.813 177.106 223.015C164.659 229.216 151.079 232.814 137.194 233.589C123.31 234.364 109.413 232.3 96.354 227.522C83.2945 222.744 71.3466 215.353 61.2403 205.801C51.1341 196.249 43.0819 184.737 37.5758 171.967C32.0698 159.198 29.2255 145.44 29.217 131.534ZM244.731 53.5395C247.296 50.6332 248.602 46.8268 248.361 42.9577C248.119 39.0887 246.351 35.4739 243.445 32.9086C240.539 30.3433 236.732 29.0376 232.863 29.2787C228.994 29.5198 225.379 31.288 222.814 34.1944L128.792 140.563L82.2845 102.677C80.7974 101.464 79.0861 100.556 77.2482 100.005C75.4103 99.4535 73.4818 99.2696 71.5729 99.4637C67.7175 99.8555 64.1757 101.763 61.7267 104.766C60.514 106.253 59.6061 107.964 59.0548 109.802C58.5036 111.64 58.3197 113.569 58.5137 115.478C58.9055 119.333 60.8128 122.875 63.8161 125.324L121.223 172.079C124.148 174.459 127.879 175.616 131.637 175.308C135.394 175 138.888 173.252 141.386 170.428L244.731 53.5395Z" fill="#B28F4C"/>
</svg>
